<?xml version="1.0" encoding="UTF-8" standalone="no"?>
<!-- Created with Inkscape (http://www.inkscape.org/) -->

<svg
   xmlns:dc="http://purl.org/dc/elements/1.1/"
   xmlns:cc="http://creativecommons.org/ns#"
   xmlns:rdf="http://www.w3.org/1999/02/22-rdf-syntax-ns#"
   xmlns:svg="http://www.w3.org/2000/svg"
   xmlns="http://www.w3.org/2000/svg"
   xmlns:sodipodi="http://sodipodi.sourceforge.net/DTD/sodipodi-0.dtd"
   xmlns:inkscape="http://www.inkscape.org/namespaces/inkscape"
   width="211.59062"
   height="40.294201"
   id="svg2"
   version="1.1"
   inkscape:version="0.48.2 r9819"
   sodipodi:docname="New document 1">
  <defs
     id="defs4" />
  <sodipodi:namedview
     id="base"
     pagecolor="#ffffff"
     bordercolor="#666666"
     borderopacity="1.0"
     inkscape:pageopacity="0.0"
     inkscape:pageshadow="2"
     inkscape:zoom="2.8"
     inkscape:cx="191.57867"
     inkscape:cy="14.269448"
     inkscape:document-units="px"
     inkscape:current-layer="g3023"
     showgrid="false"
     fit-margin-top="0"
     fit-margin-left="0"
     fit-margin-right="0"
     fit-margin-bottom="0"
     inkscape:window-width="1920"
     inkscape:window-height="1017"
     inkscape:window-x="-8"
     inkscape:window-y="-8"
     inkscape:window-maximized="1" />
  <metadata
     id="metadata7">
    <rdf:RDF>
      <cc:Work
         rdf:about="">
        <dc:format>image/svg+xml</dc:format>
        <dc:type
           rdf:resource="http://purl.org/dc/dcmitype/StillImage" />
        <dc:title></dc:title>
      </cc:Work>
    </rdf:RDF>
  </metadata>
  <g
     inkscape:label="Layer 1"
     inkscape:groupmode="layer"
     id="layer1"
     transform="translate(-200.77116,-609.03227)">
    <g
       id="g3023"
       transform="matrix(1.25,0,0,1.25,199.52429,586.82647)">
      <g
         id="#929296ff">
        <path
           id="path2993"
           d="m 10.62,20.53 c 4.59,-2.52 10.52,-3.11 15.22,-0.59 3.22,1.75 4.56,5.55 4.56,9.03 0.11,6.62 0.01,13.25 0.03,19.87 -0.74,-0.01 -2.2,-0.03 -2.94,-0.04 -0.07,-6.91 0.18,-13.82 -0.1,-20.72 0.02,-3.99 -3.54,-7.11 -7.4,-7.23 -5.65,-0.66 -10.45,2.94 -14.6,6.27 -0.75,-3.58 2.68,-5.16 5.23,-6.59 z"
           inkscape:connector-curvature="0"
           style="fill:#929296" />
        <path
           id="path2995"
           d="m 41.36,22.33 c 6.18,-6.12 17.65,-5.72 22.98,1.3 2.33,2.83 2.81,6.57 2.96,10.11 -8.72,0.01 -17.45,0.02 -26.17,0 0.06,-0.58 0.18,-1.72 0.24,-2.3 7.7,-0.03 15.41,0.03 23.12,-0.03 -0.73,-3.62 -2.36,-7.36 -5.74,-9.21 -5.72,-3.47 -13.9,-1.51 -17.38,4.21 -3.85,6.25 -1.87,15.95 5.05,19.17 6.22,2.9 13.73,0.87 18.76,-3.46 0.33,0.48 0.98,1.44 1.3,1.92 -5.78,5.65 -15.43,7.05 -22.52,3.15 -8.64,-4.81 -9.9,-18.33 -2.6,-24.86 z"
           inkscape:connector-curvature="0"
           style="fill:#929296" />
        <path
           id="path2997"
           d="m 146.15,20.19 c 5.87,-3.27 13.64,-3.24 19.47,0.13 2.82,1.52 3.91,4.65 4.65,7.56 -0.73,0.03 -2.17,0.1 -2.89,0.14 -0.78,-2.14 -1.48,-4.65 -3.67,-5.79 -4.89,-2.77 -11.44,-2.71 -16.22,0.28 -2.81,1.68 -2.94,6.33 0.18,7.76 6.14,3.13 13.84,1.43 19.64,5.46 3.38,2.27 3.71,7.62 0.91,10.47 -2.51,2.63 -6.29,3.27 -9.72,3.8 l -4.66,0 c -6.12,-0.35 -12.38,-4.07 -13.13,-10.62 0.69,-0.03 2.07,-0.09 2.76,-0.12 0.94,3.06 2.68,6.11 5.94,7.1 5.04,1.79 11.2,1.84 15.8,-1.16 2.75,-1.87 2.55,-6.47 -0.46,-7.98 -6.23,-3.43 -14.29,-1.38 -20.12,-5.77 -3.68,-2.94 -2.52,-9.2 1.52,-11.26 z"
           inkscape:connector-curvature="0"
           style="fill:#929296" />
        <path
           id="path2999"
           d="m 1,18.94 c 0.72,0 2.16,0 2.88,0 0,9.96 0,19.91 0,29.87 -0.72,0 -2.15,0.02 -2.87,0.02 C 0.99,38.87 1,28.9 1,18.94 z"
           inkscape:connector-curvature="0"
           style="fill:#929296" />
        <path
           id="path3001"
           d="m 106.25,18.94 c 0.73,0 2.2,0 2.93,0 0.08,7.01 -0.14,14.03 0.09,21.03 0.05,3.64 3.11,6.64 6.66,7.01 5.79,1.01 11.04,-2.46 15.2,-6.08 0,0.81 0.01,2.41 0.01,3.21 -4.99,4.09 -11.74,6.92 -18.19,4.79 -3.94,-1.05 -6.49,-4.97 -6.61,-8.93 -0.23,-7 -0.02,-14.02 -0.09,-21.03 z"
           inkscape:connector-curvature="0"
           style="fill:#929296" />
        <path
           id="path3003"
           d="m 132.82,18.94 c 0.73,0 2.2,0 2.93,0 0,9.96 0,19.92 0,29.88 -0.74,0 -2.2,0 -2.93,-0.01 -0.01,-9.95 -0.01,-19.91 0,-29.87 z"
           inkscape:connector-curvature="0"
           style="fill:#929296" />
      </g>
      <g
         id="#008ec8e8">
        <path
           id="path3006"
           d="m 69.02,18.94 c 0.99,0 2.97,0 3.95,0 3.42,3.61 6.93,7.14 10.36,10.74 0.99,0.9 1.37,2.2 1.85,3.4 C 83.73,33.15 82.2,33 81.3,31.7 77.2,27.45 73.14,23.17 69.02,18.94 z"
           inkscape:connector-curvature="0"
           style="opacity:0.91000001;fill:#008ec8" />
      </g>
      <g
         id="#d31446e4">
        <path
           id="path3009"
           d="m 98.14,18.94 c 1.33,-0.01 2.66,-0.01 3.99,0 -4.56,4.62 -8.88,9.48 -13.58,13.95 -0.68,0.01 -2.03,0.03 -2.71,0.04 2.85,-5.57 8.33,-9.23 12.3,-13.99 z"
           inkscape:connector-curvature="0"
           style="opacity:0.88999999;fill:#d31446" />
      </g>
      <g
         id="#e5b01fe5">
        <path
           id="path3012"
           d="m 80.62,36.67 c 1.1,-1.28 2.52,-2.18 4.24,-2.39 0.38,1.84 -0.96,3.13 -2.05,4.32 -3.34,3.44 -6.66,6.9 -10.01,10.33 -1.27,-0.02 -2.54,-0.05 -3.81,-0.08 3.78,-4.15 7.79,-8.08 11.63,-12.18 z"
           inkscape:connector-curvature="0"
           style="opacity:0.9;fill:#e5b01f" />
      </g>
      <g
         id="#409b3ce8">
        <path
           id="path3015"
           d="m 86.23,34.24 c 1.66,0.31 3.11,1.14 4.2,2.42 3.85,4.1 7.86,8.05 11.67,12.2 -1.28,0.02 -2.56,0.04 -3.84,0.05 -3.18,-3.22 -6.29,-6.51 -9.46,-9.75 -1.24,-1.38 -2.96,-2.77 -2.57,-4.92 z"
           inkscape:connector-curvature="0"
           style="opacity:0.91000001;fill:#409b3c" />
      </g>
    </g>
  </g>
</svg>
